<svg version="1.1" viewBox="0 0 111.55 37.019" xmlns="http://www.w3.org/2000/svg" xmlns:xlink="http://www.w3.org/1999/xlink">
 <defs>
  <clipPath id="SVGID_2_">
   <use width="100%" height="100%" overflow="visible" xlink:href="#SVGID_1_"/>
  </clipPath>
  <path id="SVGID_1_" d="m1478.5 542.5c0 32.1-27.9 49.7-45 66.9-15.6-15.6-45-34.8-45-66.9 0-24.9 20.2-45 45-45 24.8-.1 45 20.1 45 45z"/>
 </defs>
 <g transform="translate(-10.747 -13.151)">
  <g transform="matrix(.26458 0 0 .26458 -310.35 -111.07)">
   <g>
    <g fill="#f9c300">
     <path d="m1433.5 497.4c-24.9 0-45 20.2-45 45 0 32.1 29.4 51.3 45 66.9 17.2-17.2 45-34.8 45-66.9 0-24.8-20.2-45-45-45zm0 65.3c-11.1 0-20.1-9-20.1-20.1s9-20.1 20.1-20.1 20.1 9 20.1 20.1-9 20.1-20.1 20.1z"/>
     <path d="m1292.8 533.6c-1.5-15-8.5-26.4-22.5-32.8-8-3.7-16.5-4.1-25.1-2.4-12.3 2.3-21.7 8.7-26.9 20.2-5.6 12.2-6.2 24.9-1.9 37.6 3.8 11.1 11.4 18.8 22.6 22.6 7.5 2.6 15.1 2.7 22.8 1.3 12.1-2.2 21.2-8.5 26.6-19.7 3.3-6.9 4.5-14.2 4.5-21.7v-2.5c0-.9 0-1.8-.1-2.6zm-23.6 18c-2.2 6.2-6.2 10.7-13.3 11.2-10.3.8-16.9-4.2-19.1-14.4-.7-3.2-.9-6.6-1.1-8.5.1-6.9.7-12.3 3.6-17.1 3.4-5.7 8.7-8.1 15.2-7.4 9.3 1 13.9 5.5 15.6 14.8 1.3 7.2 1.6 14.4-.9 21.4z"/>
     <path d="m1635.2 534.5c-.1-1.2-.2-2.3-.4-3.5-2.3-14.6-9.8-25.2-23.7-30.9-7.5-3.1-15.4-3.3-23.3-1.9-13 2.4-22.6 9.3-27.8 21.6-4.9 11.7-5.5 23.8-1.5 35.8 4.1 12.4 12.7 20.5 25.4 23.9 9.1 2.4 18.2 1.8 27.1-1.4s15.4-9.1 19.6-17.6c3.4-7 4.6-14.4 4.6-22.1v-3.9zm-24.6 19.1c-2.8 5.8-7.2 9.2-13.9 9.3-6.9.1-12.4-2.4-15.6-8.9-3.1-6.4-3.4-13.2-2.8-20.2.4-4.7 1.6-9.1 4.6-12.9 3.5-4.5 8.3-6.2 13.8-5.6 10 1.1 14.9 6.6 16.1 17.4.2 2.2.4 4.5.5 6.7 0 5-.5 9.7-2.7 14.2z"/>
     <path d="m1364 499c-6-.3-10.7 1.9-14.8 6.3-7.2 7.7-13.4 16.1-19.5 24.6l-1.5 2.1c-.2 0-.3-.1-.5-.1v-2-47.8c0-5.4-3.1-9.8-8.2-11.6-4.4-1.6-9-.8-13.7-.9v2.7 59.7 34.2c0 6.1 3.1 10.9 8.6 12 4.3.8 8.8.6 13.4.9v-37.6c.4.2.5.2.6.3.5.7 1 1.5 1.5 2.2 6.7 10.1 13.7 20.1 22 29.1 4.5 4.9 10.3 6.9 16.8 6.4 5.8-.5 9.7-4.9 10.8-12-5.1-.7-8.7-4-12.1-7.6-2.4-2.6-4.7-5.1-6.9-7.8-4.1-5.3-7.9-10.7-11.9-16.1 10-13 20.4-25.2 32.2-37-6 .1-11.4.3-16.8 0z"/>
     <path d="m1525.1 561.6c-4.9-.3-7.8-2.9-8.5-7.8-.3-2.3-.4-4.6-.4-6.9v-64.2c0-6.7-2.7-11.2-7.9-12.2-4.5-.8-9.3-.6-14-.9-.1.9-.1 1.4-.1 1.8v80.2c0 2.8.3 5.7.9 8.4 1.8 9.4 6.9 16.2 16.5 18.6 9.1 2.3 18.4 1.9 27.6.8 5.5-.7 9.7-3.8 10.4-9.7.4-3.3.1-6.8.1-10.3-8.2 2.5-16.3 2.8-24.6 2.2z"/>
    </g>
    <path d="m1446.5 496.2s.3-9.2 6.1-15.4c5.9-6.3 18.8-7.6 18.8-7.6s-1.2 11.2-8.4 17.9c-7.1 6.6-16.5 5.1-16.5 5.1" fill="#37d389"/>
    <g>
     <clipPath>
      <use width="100%" height="100%" overflow="visible" xlink:href="#SVGID_1_"/>
     </clipPath>
     <g clip-path="url(#SVGID_2_)">
      <g>
       <path d="m1430.8 571c-12.9 4.1 5.7 5.8 5.7 5.8l40 20.9 11.4-12.8.1-22.9c0-.1-25.2-1.1-57.2 9z" fill="#e9ff66"/>
      </g>
      <g>
       <path d="m1498.9 587.1-65.4 22.3-5.8-18.4-.8-9.9s-24.9-10.3 5.8-10.3c31.2-.1 66.2 16.3 66.2 16.3z" fill="#318983"/>
      </g>
     </g>
    </g>
   </g>
   <path d="m1433.5 609.4c-14.6-14.6-47.7-37.9-47.7-65.9 0-7.1 3.9-11.3 3.9-11.3s-2.7 13.8 20.9 24.8c11.6 5.4 30.3 15.8 30.3 34 0 12.7-7.4 18.4-7.4 18.4z" fill="#37d389"/>
  </g>
 </g>
</svg>
